<?xml version="1.0" encoding="utf-8"?><svg version="1.1" xmlns="http://www.w3.org/2000/svg" xmlns:xlink="http://www.w3.org/1999/xlink" x="0px" y="0px" xml:space="preserve"><path style="fill:#FDFF06;" d="M21,18.2c-2.7,0-4.9-2.2-4.9-4.9s2.2-4.9,4.9-4.9s4.9,2.2,4.9,4.9S23.7,18.2,21,18.2L21,18.2z M21,9.8 c-1.9,0-3.5,1.6-3.5,3.5s1.6,3.5,3.5,3.5s3.5-1.6,3.5-3.5S22.9,9.8,21,9.8L21,9.8z M31.6,22.8L20.9,38.3L10.1,22.8 c-4-5.3-3.4-14.2,1.3-18.9C13.9,1.4,17.3,0,20.9,0s7,1.4,9.5,3.9C35.1,8.6,35.6,17.5,31.6,22.8L31.6,22.8z M29.4,4.9 c-2.3-2.3-5.3-3.5-8.5-3.5s-6.2,1.3-8.5,3.5C8.1,9.2,7.6,17.1,11.3,22l9.6,13.9L30.5,22C34.1,17.1,33.6,9.2,29.4,4.9L29.4,4.9z  M21,42C7.2,42,0,39,0,36.1c0-2.6,5.1-5.1,12.5-5.9c0.4,0,0.7,0.2,0.8,0.6c0,0.4-0.2,0.7-0.6,0.8c-7.4,0.9-11.3,3.2-11.3,4.6 c0,1.9,7.5,4.5,19.6,4.5s19.6-2.7,19.6-4.5c0-1.4-3.9-3.7-11.3-4.6c-0.4,0-0.7-0.4-0.6-0.8c0-0.4,0.4-0.7,0.8-0.6 C36.9,31,42,33.4,42,36.1C42,39,34.8,42,21,42L21,42z"/></svg>