<?xml version="1.0" encoding="utf-8"?><svg version="1.1" xmlns="http://www.w3.org/2000/svg" xmlns:xlink="http://www.w3.org/1999/xlink" x="0px" y="0px" viewBox="0 0 55 55" style="enable-background:new 0 0 55 55;" xml:space="preserve"><path style="fill:#FDFF06;" d="M27.5,55C12.3,55,0,42.7,0,27.5S12.3,0,27.5,0S55,12.3,55,27.5S42.7,55,27.5,55L27.5,55z M40,41.7v-8.8V19.5 c0-0.4,0-0.7-0.3-1l-0.4-0.4l-5.4-5.4l-0.4-0.4c-0.2-0.2-0.4-0.3-0.7-0.3H17.3c-0.6,0-1.3,0.5-1.3,1.6v19.3v8.8v0.2 c0,0.4,0.4,0.9,1,1h0.1c0.1,0,0.2,0,0.3,0h21.4c0.1,0,0.2,0,0.3,0h0.1c0.5-0.1,1-0.6,1-1v-0.2H40z M38.8,41.9L38.8,41.9H17.3h-0.1 c-0.1,0-0.1-0.1-0.1-0.2v-7.8H39v7.8C38.9,41.8,38.9,41.9,38.8,41.9L38.8,41.9z M24.7,36.4c-0.1-0.2-0.3-0.4-0.4-0.5 c-0.2-0.1-0.4-0.3-0.6-0.3c-0.2-0.1-0.4-0.1-0.7-0.1h-1.5v5.4h0.9V39H23c0.3,0,0.5,0,0.8-0.1c0.2-0.1,0.4-0.2,0.6-0.4 s0.3-0.3,0.4-0.6c0.1-0.2,0.1-0.5,0.1-0.7C24.9,36.9,24.8,36.7,24.7,36.4L24.7,36.4z M30.1,37.1c-0.1-0.3-0.3-0.6-0.5-0.8 s-0.5-0.4-0.9-0.6c-0.3-0.1-0.7-0.2-1.2-0.2h-1.6v5.4h2c0.1,0,0.2,0,0.3,0c0.1,0,0.3-0.1,0.5-0.1c0.2-0.1,0.3-0.2,0.5-0.3 s0.3-0.3,0.5-0.5c0.1-0.2,0.3-0.5,0.4-0.8s0.1-0.7,0.1-1.1C30.3,37.7,30.2,37.4,30.1,37.1L30.1,37.1z M34.9,35.5h-3.4v5.4h0.9v-2.4 h2.2v-0.6h-2.2v-1.7h2.5V35.5L34.9,35.5z M27.7,40.2h-0.9v-4.1h0.5c0.4,0,0.8,0.1,1,0.2c0.3,0.1,0.5,0.3,0.6,0.4 c0.2,0.2,0.3,0.4,0.3,0.6c0.1,0.2,0.1,0.4,0.1,0.7c0,0.7-0.1,1.3-0.4,1.7C28.7,40,28.2,40.2,27.7,40.2L27.7,40.2z M23.7,38 c-0.1,0.1-0.2,0.1-0.3,0.2c-0.1,0-0.2,0.1-0.3,0.1h-0.8v-2.1H23c0.2,0,0.4,0,0.5,0.1s0.2,0.2,0.3,0.3c0.1,0.1,0.1,0.2,0.1,0.3 s0,0.2,0,0.3c0,0.2,0,0.4-0.1,0.6C23.9,37.8,23.8,38,23.7,38L23.7,38z M17.1,13.6c0-0.1,0-0.5,0.2-0.5h15.3c0,0.1,0,0.1,0,0.2v6.2 h6.2c0.1,0,0.1,0,0.2,0l0,0v13.4H17.1V13.6L17.1,13.6z M23,30.2c0.2,0.1,0.3,0.2,0.5,0.2c0.5,0,0.9-0.4,1.5-1.1 c0.4-0.6,0.8-1.3,1.3-2.3c1.4-0.6,3.2-1.2,4.7-1.5c0.8,0.8,1.6,1.2,2.2,1.2c0.5,0,0.9-0.2,1.2-0.6s0.4-0.8,0.2-1.2 c-0.2-0.4-0.7-0.6-1.5-0.6c-0.5,0-1.1,0.1-1.8,0.2c-1-1-2-2.6-2.7-4c0.7-3,0.4-3.4,0.2-3.6c-0.2-0.2-0.4-0.6-0.7-0.6 c-0.1,0-0.4,0.1-0.5,0.1c-0.3,0.1-0.5,0.3-0.6,0.6c-0.4,0.9,0.1,2.4,0.7,3.5c-0.5,1.8-1.2,4-2,5.7c-2,0.9-3.1,1.8-3.2,2.7 C22.3,29.3,22.4,29.8,23,30.2L23,30.2z M24.9,27.6c-0.9,1.6-1.3,1.8-1.4,1.8c-0.2-0.2-0.2-0.3-0.2-0.4 C23.3,28.8,23.8,28.2,24.9,27.6L24.9,27.6z M30.2,24.7c-1.1,0.3-2.3,0.6-3.5,1.1c0.5-1.3,1-2.7,1.4-4C28.8,22.8,29.5,23.8,30.2,24.7 L30.2,24.7z M27.9,17.2c0,0,0.6,0.6,0,1.7C27.1,18.1,27.8,17.2,27.9,17.2L27.9,17.2z M33.8,25.3c0,0,0,0.1-0.1,0.2 c-0.2,0.2-0.5,0.2-0.6,0.2c-0.3,0-0.4-0.2-0.8-0.5c0.4,0,0.7-0.1,1-0.1C33.6,25.2,33.7,25.2,33.8,25.3L33.8,25.3z M33.6,13.9 l4.5,4.5h-4.5V13.9L33.6,13.9z"/></svg>
