<?xml version="1.0" encoding="utf-8"?><svg version="1.1" xmlns="http://www.w3.org/2000/svg" xmlns:xlink="http://www.w3.org/1999/xlink" x="0px" y="0px" xml:space="preserve"><path style="fill:#FDFF06;" d="M41.5,34.6c-0.1-1-0.7-1.9-1.6-2.4l-10.1-6c-1.2-0.7-2.8-0.5-3.8,0.5l-2,2c-0.5,0.5-1.4,0.6-2,0.1 c-1.6-1.3-3.1-2.7-4.6-4.2c-1.5-1.5-2.9-3.1-4.1-4.7c-0.5-0.6-0.4-1.5,0.1-2l2-2c1-1,1.2-2.6,0.5-3.9L10.1,1.6 C9.6,0.7,8.7,0.2,7.8,0s-2,0.2-2.7,1l-3,3C0,6.2,0,10.1,2,15.1c2,4.8,5.6,10.1,10.3,14.8c4.7,4.8,9.8,8.5,14.5,10.5 c2.4,1,4.5,1.5,6.3,1.5c1.9,0,3.4-0.5,4.4-1.6l3-3.1C41.3,36.6,41.6,35.6,41.5,34.6L41.5,34.6z M29.1,27.4l10.1,6 c0.5,0.3,0.8,0.8,0.9,1.4c0.1,0.5-0.1,1-0.3,1.4l-13.4-7.9l0.5-0.6C27.5,27.1,28.4,27,29.1,27.4L29.1,27.4z M7.6,1.4 C8.2,1.5,8.7,1.8,9,2.3l5.8,10.4c0.4,0.7,0.3,1.7-0.3,2.3L14,15.5L6.2,1.7c0.3-0.2,0.7-0.4,1.1-0.4C7.4,1.4,7.5,1.4,7.6,1.4L7.6,1.4 z M36.6,39.4c-1.7,1.7-5.1,1.6-9.3-0.2c-4.5-1.9-9.5-5.6-14.1-10.2c-4.6-4.7-8.1-9.8-10-14.4C1.4,10.2,1.4,6.7,3,5l2.2-2.3L13,16.5 L12.5,17c-1,1-1.1,2.7-0.2,3.8c1.3,1.6,2.7,3.3,4.2,4.8s3.1,3,4.7,4.3c1.1,0.9,2.7,0.8,3.7-0.2l0.5-0.5l13.5,7.9L36.6,39.4 L36.6,39.4z"/></svg>