<?xml version="1.0" encoding="utf-8"?><svg version="1.1" xmlns="http://www.w3.org/2000/svg" xmlns:xlink="http://www.w3.org/1999/xlink" x="0px" y="0px" xml:space="preserve"><g><path style="fill:#FFFFFF;" d="M41.5,23.6l-9.3,12.9c-0.6,0.8-1.6,1.4-2.6,1.5c-0.1,0-0.2,0-0.3,0c-0.9,0-1.8-0.4-2.5-1 	c-0.7-0.7-1.1-1.8-1-2.8s0.6-2,1.4-2.6L40,22.2c0.4-0.3,0.9-0.2,1.3,0.1C41.8,22.6,41.8,23.2,41.5,23.6L41.5,23.6z M28.5,33.2 	c-0.4,0.3-0.6,0.7-0.6,1.1c0,0.5,0.1,0.9,0.4,1.2s0.8,0.5,1.2,0.5c0.5,0,0.9-0.3,1.1-0.6l5.7-7.9L28.5,33.2L28.5,33.2z M51.8,13.9 	l-1.4-1.4l-2.1,2.1c1.3,1.5,2.5,3.1,3.5,4.8l0,0c0,0,0,0,0,0.1c2.3,4,3.6,8.5,3.6,13.4s-1.3,9.5-3.6,13.4c0,0,0,0,0,0.1 	c0,0,0,0-0.1,0.1c-2.3,4-5.7,7.4-9.7,9.8l0,0h-0.1c-3.9,2.2-8.4,3.5-13.1,3.6l0,0l0,0h-0.1c-2,0-4-0.2-6-0.7 	c-0.5-0.1-0.9-0.7-0.7-1.2c0.1-0.5,0.7-0.9,1.2-0.8c1.6,0.4,3.2,0.6,4.7,0.6v-2c0-0.6,0.4-1,1-1c0.5,0,1,0.4,1,1v2 	c3.7-0.2,7.3-1.2,10.4-2.8l-1-1.7c-0.3-0.5-0.1-1.1,0.4-1.4c0.5-0.3,1.1-0.1,1.4,0.4l1,1.7c3.1-2,5.7-4.6,7.7-7.8l-1.7-1 	c-0.5-0.3-0.6-0.9-0.4-1.4c0.3-0.5,0.9-0.6,1.4-0.4l1.7,1c1.7-3.2,2.7-6.8,2.8-10.6h-2c-0.5,0-1-0.4-1-1s0.4-1,1-1h2 	c-0.1-3.8-1.2-7.4-2.8-10.6l-1.7,1c-0.2,0.1-0.3,0.1-0.5,0.1c-0.3,0-0.7-0.2-0.9-0.5c-0.3-0.5-0.1-1.1,0.4-1.4l1.7-1 	c-2-3.1-4.6-5.8-7.7-7.8l-1,1.7c-0.2,0.3-0.5,0.5-0.9,0.5c-0.2,0-0.3,0-0.5-0.1c-0.5-0.3-0.6-0.9-0.4-1.4l1-1.7 	C37.1,9.2,33.5,8.2,29.8,8v2c0,0.6-0.4,1-1,1c-0.5,0-1-0.4-1-1V8c-0.3,0-0.6,0-0.9,0.1l-1.1,0.1C24.9,8.3,24,8.5,23,8.7 	c-0.5,0.1-1.1-0.2-1.2-0.7s0.2-1.1,0.7-1.2c1.1-0.2,2.1-0.4,3.2-0.5V5h-1.5c-1.4,0-2.5-1.1-2.5-2.5C21.9,1.1,23,0,24.3,0h8.9 	c1.4,0,2.5,1.1,2.5,2.5S34.6,5,33.2,5h-1.5v1.2c3.7,0.4,7.1,1.6,10.2,3.4c0,0,0,0,0.1,0l0,0c1.7,1,3.3,2.2,4.8,3.6l2.1-2.1 	l-1.4-1.4l4.2-4.2L56,9.7L51.8,13.9L51.8,13.9z M33.3,3c0.3,0,0.5-0.2,0.5-0.5S33.6,2,33.3,2h-8.9c-0.3,0-0.5,0.2-0.5,0.5 	S24.1,3,24.4,3h3.5v3c0.1,0,0.2,0,0.3,0c0.2,0,0.3,0,0.5,0c0,0,0,0,0.1,0h0.1c0.3,0,0.6,0,1,0V3H33.3L33.3,3z M51.8,8.3l-1.4,1.4 	l1.4,1.4l1.4-1.4L51.8,8.3L51.8,8.3z"/><path style="fill:#FDFF06;" d="M19.9,16h-5c-0.5,0-1-0.4-1-1s0.4-1,1-1h5c0.5,0,1,0.4,1,1S20.4,16,19.9,16L19.9,16z M19.9,23H10 	c-0.5,0-1-0.4-1-1s0.4-1,1-1h9.9c0.5,0,1,0.4,1,1S20.4,23,19.9,23L19.9,23z M19.9,30H5c-0.5,0-1-0.4-1-1s0.4-1,1-1h14.9 	c0.5,0,1,0.4,1,1S20.4,30,19.9,30L19.9,30z M19.9,37H1c-0.5,0-1-0.4-1-1s0.4-1,1-1h18.9c0.5,0,1,0.4,1,1S20.4,37,19.9,37L19.9,37z 	 M19.9,44H7c-0.5,0-1-0.4-1-1s0.4-1,1-1h12.9c0.5,0,1,0.4,1,1S20.4,44,19.9,44L19.9,44z M19.9,51H13c-0.5,0-1-0.4-1-1s0.4-1,1-1 	h6.9c0.5,0,1,0.4,1,1S20.4,51,19.9,51L19.9,51z"/></g></svg>